<svg viewBox="0 0 302 300" xmlns="http://www.w3.org/2000/svg" xmlns:xlink="http://www.w3.org/2000/xlink">
    <g style="color:#FDD835">
        <g id="body-07" width="320" height="300">
            <g fill="currentColor">
                <path d="M158.5 234.5s-59 1-84 42 23 42 23 42l132-13s-5-16 5-27 19-6 19-6-34-41-95-38z"></path>
                <path d="M277.5 301.5c-.33-7.3-4.07-15.56-12-25 0 0-11.5-7.5-25.28-2.69-7.72 4.69-13.72 11.69-11.72 28.69zM74.5 276.5a29.05 29.05 0 0 0-26 16c-9 17 10 17 10 17l8.79-9.5s-2.79-6.5 7.21-23.5z"></path>
            </g>
            <path d="M158.5 234.5s-59 1-84 42 23 42 23 42l132-13s-5-16 5-27 19-7 19-7-34-40-95-37z" stroke-linecap="round" stroke-linejoin="round" stroke="#000" fill="none"></path>
            <path d="M215 245s6.5 1.46-.5 16.46-13 26-10 41 24.32 0 24.32 0-3.6-15.79 7-25.4c12.91-11.65 19.71-3.56 16.64-5.6.04.04-16.97-17.88-37.46-26.46z" fill-opacity=".2"></path>
            <path d="M158.5 234.5s-59 1-84 42 23 42 23 42l132-13s-5-16 5-27c7-9 19-7 19-7s-34-40-95-37z" stroke-linecap="round" stroke-linejoin="round" stroke="#000" fill="none"></path>
            <path d="M62.5 280.5s5 0 0 9-8 11-9 14-6.5-2.33-6.5-2.33-3.23-4.81 5.63-14.74c0 0 4.87-5.93 9.87-5.93z" fill-opacity=".4" fill="#fff"></path>
            <path d="M74.5 276.5a29.05 29.05 0 0 0-26 16c-9 17 10 17 10 17l8.79-9.5s-2.79-6.5 7.21-23.5z" stroke-miterlimit="10" stroke="#000" fill="none"></path>
            <path d="M77.5 301.5s0-19 13-30 16-5 15-2-14 24-14 32-14 0-14 0z" fill-opacity=".4" fill="#fff"></path>
            <path d="M277.5 301.5s-5-39-37.28-27.69c-7.72 4.69-13.72 11.69-11.72 28.69z" stroke-miterlimit="10" stroke="#000" fill="none"></path>
            <path d="M261.5 304.5s4-7 3-15-8.36-16.57-8.36-16.57a25.86 25.86 0 0 1 18.77 16.29 27.17 27.17 0 0 1 2.58 15.29z" fill-opacity=".2"></path>
            <path d="M103.5 303.5s2-30 41-29 41 29 41 29h-11.25c-.75-2-12.12-18.58-30.75-18-15.88-.37-26.93 4.64-30.5 18z" stroke-miterlimit="10" fill="#fff" fill-opacity=".2" stroke="#000"></path>
            <path d="M113.5 301.5s3-16 28-16 32 17 32 17z" stroke-miterlimit="10" fill-opacity=".2" stroke="#000"></path>
            <path d="M118.5 300.5s9-12 24-11 24 12 24 12z" fill="#f9ec31" stroke-miterlimit="10" stroke="#000"></path>
            <circle cx="125.5" cy="283.5" r="1"></circle>
            <circle cx="113" cy="291" r="1"></circle>
            <circle cx="148" cy="280" r="1"></circle>
            <circle cx="170" cy="289" r="1"></circle>
            <path d="M147 200s0 44 1 45a14.41 14.41 0 0 0 14 4c8-2 7-7 7-7a144.32 144.32 0 0 1-2.5-24.5v-19s-18 0-19.5 1.5z" fill="#6d6e70" stroke-miterlimit="10" stroke="#000"></path>
            <path d="M159.5 202.5s1 17 2 23 2 22.83-2 23.91c0 0 9.62-.9 9.31-8.41s-2.43-19.17-2.37-30.34.06-12.17.06-12.17l-7 .11z" fill-opacity=".2"></path>
            <path d="M147 233.5s1.08 3 5.4 3 12.83-1.33 15-4.66M147.5 219.32s1 2.68 5 2.68 11.89-1.18 13.94-4.16M147.5 208.07s1 1.93 5 1.93 11.89-.85 13.94-3" stroke-miterlimit="10" stroke="#000" fill="none"></path>
        </g>
        <g id="face-03" width="320" height="300">
            <path d="M147 88c-20.15-.5-56.5 14.5-56.5 57.5 0 0 1 22 6 41s10 34 10 37c0 0 3 12 25 11s62-15 62-15-2-31-3-49S196.79 89.24 147 88z" fill="currentColor"></path>
            <path d="M147 88c-20.15-.5-56.5 14.5-56.5 57.5 0 0 1 22 6 41s10 34 10 37c0 0 3 12 25 11s62-15 62-15-2-31-3-49S196.79 89.24 147 88z" fill="none" stroke="#000" stroke-linecap="round" stroke-linejoin="round"></path>
            <path d="M147 87c-20.15-.5-56.5 14.5-56.5 57.5 0 0 1 22 6 41s10 34 10 37c0 0 3 12 25 11s62-15 62-15-2-31-3-49S196.79 88.24 147 87z" fill="none" stroke="#000" stroke-linecap="round" stroke-linejoin="round"></path>
            <path d="M135.5 96.5s36-4 45 43c0 0 3 24 3 35s-1 25 1 36l2 11 7-2s-2.53-55.76-3.27-70.88S188.5 90.81 150 88.16c0 0-19.78-1-33.64 8.7 0 0-4.86 4.65.14 2.65s16-3.01 19-3.01z" fill-opacity=".2"></path>
            <path d="M122.5 104.5s-4 1-4 4 2 7 5 6 5-5 4-7-2-4-5-3zM115.5 111.5s-9-6-17 12-1 37-1 37 2 6 8 6 4-9 4-9-4-13-1-24 7-13 7-13 5-5 0-9z" fill="#fff" fill-opacity=".4"></path>
            <circle cx="111" cy="223" r="1.5"></circle>
            <circle cx="125.5" cy="227.5" r="1.5"></circle>
            <circle cx="141.5" cy="226.5" r="1.5"></circle>
            <circle cx="159.5" cy="223.5" r="1.5"></circle>
            <circle cx="175.5" cy="219.5" r="1.5"></circle>
            <circle cx="188.5" cy="214.5" r="1.5"></circle>
        </g>
        <g id="eyes-04" width="320" height="300">
            <path d="M127.5 127.5c11.08-.53 43-2 43 11 1 15-16.69 15-23.34 15.52s-37.66 1.48-47.66.48-15-4-15-12 8-11 17-13 19.5-1.69 26-2z" fill="currentColor"></path>
            <path d="M94.39 132.09s2.78-4.25 37.95-4.92 37.17 6.33 38.17 11.33-3 10.76-6 11.88c0 0 5.52-6.38-2.24-11.63s-22.72-6.58-29.74-6.91-24.86-.88-27.94-.61-8.31.44-10.2.86z" fill-opacity=".4" fill="#fff"></path>
            <path d="M127.5 127.5c11.08-.53 43-2 43 11 1 15-16.69 15-23.34 15.52s-37.66 1.48-47.66.48-15-4-15-12 8-11 17-13 19.5-1.69 26-2z" stroke="#000" stroke-miterlimit="10" fill-opacity=".2" fill="#fff"></path>
            <path d="M121.5 131.5c-19 0-36-3-37 11s19 12 40 12 42 0 42-9c0-11-26-14-45-14z" stroke-width=".75" fill="none" stroke="#000" stroke-miterlimit="10"></path>
            <path d="M121.5 140.5s29 0 32 1 2 4-1 4-22-1-31-1-22 1-26 0-1-2 11-3 15-1 15-1z" fill="red" stroke-width=".75" stroke="#000" stroke-miterlimit="10"></path>
        </g>
        <g id="mouth-07" width="320" height="300">
            <g fill="currentColor">
                <path d="M122 180s1 10 2 14 1.5 6.5 1.5 6.5 3 0 4-1-2-17-2-18v-2s-1.49 0-3 .11a12 12 0 0 0-2.5.39z"></path>
                <path d="M131 179s1 10 2 14 1.5 6.5 1.5 6.5 3 0 4-1-2-17-2-18v-2s-1.49 0-3 .11a12 12 0 0 0-2.5.39zM141 179s1 10 2 14 1.5 6.5 1.5 6.5 3 0 4-1-2-17-2-18v-2s-1.49 0-3 .11a12 12 0 0 0-2.5.39zM149 178s1 10 2 14 1.5 6.5 1.5 6.5 3 0 4-1-2-17-2-18v-2s-1.49 0-3 .11a12 12 0 0 0-2.5.39z"></path>
            </g>
            <path d="M122 180s1 10 2 14 1.5 6.5 1.5 6.5 3 0 4-1-2-17-2-18v-2s-1.49 0-3 .11a12 12 0 0 0-2.5.39z" fill-opacity=".4"></path>
            <path d="M122 180s1 10 2 14 1.5 6.5 1.5 6.5 3 0 4-1-2-17-2-18v-2s-1.49 0-3 .11a12 12 0 0 0-2.5.39z" stroke="#000" stroke-linecap="round" stroke-linejoin="round" fill="none"></path>
            <path d="M124.5 180.5s1 11 2 14a15.77 15.77 0 0 1 1 4s2.34-.11 2.17.44a31 31 0 0 0-.82-8.63 59 59 0 0 1-1.35-10.07v-.75h-3zM125.85 200.49l1.65-1.99" fill="#461917" stroke-width=".5" stroke="#000" stroke-linecap="round" stroke-linejoin="round"></path>
            <path d="M131 179s1 10 2 14 1.5 6.5 1.5 6.5 3 0 4-1-2-17-2-18v-2s-1.49 0-3 .11a12 12 0 0 0-2.5.39z" fill-opacity=".4"></path>
            <path d="M131 179s1 10 2 14 1.5 6.5 1.5 6.5 3 0 4-1-2-17-2-18v-2s-1.49 0-3 .11a12 12 0 0 0-2.5.39z" stroke="#000" stroke-linecap="round" stroke-linejoin="round" fill="none"></path>
            <path d="M133.5 179.5s1 11 2 14a15.77 15.77 0 0 1 1 4s2.34-.11 2.17.44a31 31 0 0 0-.82-8.63 59 59 0 0 1-1.35-10.07v-.75h-3zM134.85 199.49l1.65-1.99" fill="#461917" stroke-width=".5" stroke="#000" stroke-linecap="round" stroke-linejoin="round"></path>
            <path d="M141 179s1 10 2 14 1.5 6.5 1.5 6.5 3 0 4-1-2-17-2-18v-2s-1.49 0-3 .11a12 12 0 0 0-2.5.39z" fill-opacity=".4"></path>
            <path d="M141 179s1 10 2 14 1.5 6.5 1.5 6.5 3 0 4-1-2-17-2-18v-2s-1.49 0-3 .11a12 12 0 0 0-2.5.39z" stroke="#000" stroke-linecap="round" stroke-linejoin="round" fill="none"></path>
            <path d="M143.5 179.5s1 11 2 14a15.77 15.77 0 0 1 1 4s2.34-.11 2.17.44a31 31 0 0 0-.82-8.63 59 59 0 0 1-1.35-10.07v-.75h-3zM144.85 199.49l1.65-1.99" fill="#461917" stroke-width=".5" stroke="#000" stroke-linecap="round" stroke-linejoin="round"></path>
            <path d="M149 178s1 10 2 14 1.5 6.5 1.5 6.5 3 0 4-1-2-17-2-18v-2s-1.49 0-3 .11a12 12 0 0 0-2.5.39z" fill-opacity=".4"></path>
            <path d="M149 178s1 10 2 14 1.5 6.5 1.5 6.5 3 0 4-1-2-17-2-18v-2s-1.49 0-3 .11a12 12 0 0 0-2.5.39z" stroke="#000" stroke-linecap="round" stroke-linejoin="round" fill="none"></path>
            <path d="M151.5 178.5s1 11 2 14a15.77 15.77 0 0 1 1 4s2.34-.11 2.17.44a31 31 0 0 0-.82-8.63 59 59 0 0 1-1.35-10.07v-.75h-3zM152.85 198.49l1.65-1.99" fill="#461917" stroke-width=".5" stroke="#000" stroke-linecap="round" stroke-linejoin="round"></path>
        </g>
        <g id="accessory-02" width="320" height="300">
            <path d="M103.5 165.5s11-4 15-6a59.46 59.46 0 0 1 7-3s5 0 6 3 0 5-1 6-23 8-23 8a4.45 4.45 0 0 1-5-2c-3-5 1-6 1-6z" fill="currentColor"></path>
            <path d="M102 167c-1.07 1.3 1.29 6.38 2.64 6.19s6.07.81 4.36-4.12c-1.82-4.07-5.95-3.35-7-2.07z" fill="#fff" fill-opacity=".2"></path>
            <path d="M103.5 165.5s11-4 15-6a59.46 59.46 0 0 1 7-3s5 0 6 3 0 5-1 6-23 8-23 8a4.45 4.45 0 0 1-5-2c-3-5 1-6 1-6z" fill="none" stroke="#000" stroke-linecap="round" stroke-linejoin="round"></path>
            <path d="M106.5 173.5c3-1 3-3 2-5-3-4-6-2-6-2.24M109.1 163.4s4.4.1 5.4 3.1a5.22 5.22 0 0 1-.78 5" stroke-width=".75" fill="none" stroke="#000" stroke-linecap="round" stroke-linejoin="round"></path>
            <circle cx="128" cy="161" r="1"></circle>
        </g>


    </g>
</svg>